<?xml version="1.0" encoding="UTF-8"?>
<!DOCTYPE svg PUBLIC "-//W3C//DTD SVG 1.1//EN" "http://www.w3.org/Graphics/SVG/1.1/DTD/svg11.dtd">
<!-- Creator: CorelDRAW X6 -->
<svg xmlns="http://www.w3.org/2000/svg" xml:space="preserve" width="37.6586mm" height="37.2285mm" version="1.1" style="shape-rendering:geometricPrecision; text-rendering:geometricPrecision; image-rendering:optimizeQuality; fill-rule:evenodd; clip-rule:evenodd"
viewBox="0 0 3979 3933"
 xmlns:xlink="http://www.w3.org/1999/xlink">
 <defs>
  <style type="text/css">
   <![CDATA[
    .fil14 {fill:#2B2A29}
    .fil8 {fill:#434242}
    .fil12 {fill:#9B7E16}
    .fil23 {fill:#B0CB1F}
    .fil11 {fill:#DDB204}
    .fil10 {fill:#FECC00}
    .fil3 {fill:#FEFEFE}
    .fil17 {fill:#3C5458}
    .fil9 {fill:#4D4D4D}
    .fil0 {fill:#679298}
    .fil6 {fill:#6DC5C7}
    .fil2 {fill:#72A3A8}
    .fil7 {fill:#8FBCC1}
    .fil4 {fill:#92DCDF}
    .fil21 {fill:#9ACAE6}
    .fil1 {fill:#BCE6E5}
    .fil5 {fill:#C8EEEF}
    .fil22 {fill:#CCCCCC}
    .fil19 {fill:#D2A935}
    .fil16 {fill:#D94D1F}
    .fil20 {fill:#F2675D}
    .fil15 {fill:#FF6330}
    .fil26 {fill:#FF642E}
    .fil18 {fill:#FFCF42}
    .fil13 {fill:#595858}
    .fil25 {fill:#FEFEFE;fill-rule:nonzero}
    .fil27 {fill:#385155;fill-rule:nonzero}
    .fil24 {fill:#FFCF42;fill-rule:nonzero}
   ]]>
  </style>
 </defs>
 <g id="Layer_x0020_1">
  <metadata id="CorelCorpID_0Corel-Layer"/>
  <g id="_200693984">
   <path class="fil0" d="M3693 348l83 81 0 84 -46 0 0 513c158,282 248,607 248,953 0,1078 -874,1953 -1953,1953 -1078,0 -1953,-874 -1953,-1953 0,-1078 874,-1953 1953,-1953 127,0 251,12 371,35l0 330 766 0c161,116 304,255 423,414l0 -459 106 0z"/>
   <g>
    <circle class="fil1" cx="1948" cy="1948" r="1948"/>
    <path class="fil2" d="M3496 3132c-356,465 -917,765 -1548,765 -631,0 -1192,-300 -1548,-765l3095 0z"/>
    <rect class="fil3" x="2329" y="347" width="1363.74" height="82.6053"/>
    <rect class="fil3" x="2329" y="2234" width="1363.74" height="82.6053"/>
    <rect class="fil3" x="2372" y="429" width="1278" height="1804"/>
    <rect class="fil4" x="2415" y="479" width="1192" height="1704"/>
    <path class="fil5" d="M2665 1065c-3,-8 -5,-16 -5,-25 0,-39 31,-70 70,-70 24,0 46,13 58,32 12,-20 34,-34 60,-34 39,0 70,31 70,70 0,11 -8,27 -2,27 7,-2 14,-4 22,-4 39,0 70,31 70,70 0,5 -1,10 -2,14l-61 0 -76 0 -174 0 -46 0 -90 0c-1,-5 -2,-9 -2,-14 0,-67 65,-66 107,-66z"/>
    <path class="fil5" d="M3143 747c-3,-8 -5,-16 -5,-25 0,-39 31,-70 70,-70 24,0 46,13 58,32 12,-20 34,-34 60,-34 39,0 70,31 70,70 0,11 -8,27 -2,27 7,-2 14,-4 22,-4 39,0 70,31 70,70 0,5 -1,10 -1,14l-61 0 -76 0 -174 0 -46 0 -90 0c-1,-5 -1,-9 -1,-14 0,-67 65,-66 107,-66z"/>
    <polygon class="fil6" points="2633,1469 2603,1470 2588,1523 2561,1655 2561,2179 2680,2179 2680,1696 2680,1655 "/>
    <polygon class="fil6" points="3350,1607 3465,1607 3465,1757 3527,1757 3527,2179 3350,2179 3350,1790 3350,1757 "/>
    <path class="fil6" d="M3011 756c-1,0 -3,0 -4,0 1,0 3,0 4,0 1,0 3,0 4,0 -1,0 -3,0 -4,0zm0 -81l-1 0c-1,0 -2,1 -2,2l0 45c0,0 1,0 1,0 -2,0 -4,2 -4,4l0 31 0 0c-1,0 -2,1 -4,1l-6 162 -7 0 0 8 -2 1 -2 1 -2 1 -2 1 -2 1 -2 1 -2 1 -2 2 -2 2 -2 2 -2 2 -2 2 -2 2 -1 2 -1 2 -1 2 -1 2 -1 2 -1 2 -1 2 -1 2 -1 3 0 3 0 1 -5 0 0 7 1 0 0 11c-7,0 -14,0 -21,0l0 7 2 0 0 10c-7,0 -13,0 -20,0l0 8 2 0 0 13c-8,0 -15,0 -23,0l0 10 2 0 0 25c-8,0 -17,0 -25,0l8 14 4 0 54 78 -3 1 27 36 0 0 0 0 0 0 0 0 -24 -32 0 0 23 32 -2 1 -1 0 0 0 0 0 0 0 0 0 0 0 0 0 0 0 19 24 0 8 0 0 0 18 -5 0 -17 936 119 0 -21 -936 -5 0 0 -18 0 0 0 -8 19 -24 0 0 0 0 0 0 0 0 0 0 0 0 0 0 -1 0 -2 -1 23 -32 0 0 -24 32 0 0 0 0 0 0 0 0 27 -36 -3 -1 54 -78 4 0 8 -14c-8,0 -17,0 -25,0l0 -25 2 0 0 -10c-8,0 -15,0 -23,0l0 -13 2 0 0 -8c-7,0 -13,0 -20,0l0 -10 2 0 0 -7c-7,0 -14,0 -21,0l0 -11 1 0 0 -7 -5 0 0 -1 0 -3 -1 -3 -1 -2 -1 -2 -1 -2 -1 -2 -1 -2 -1 -2 -1 -2 -1 -2 -2 -2 -2 -2 -2 -2 -2 -2 -2 -2 -2 -2 -2 -1 -2 -1 -2 -1 -2 -1 -2 -1 -2 -1 -2 -1 0 -8 -7 0 -6 -162c-1,0 -2,-1 -4,-1l0 0 0 -31c0,-2 -2,-4 -4,-4 0,0 1,0 1,0l0 -45c0,-1 -1,-2 -2,-2l-1 0zm52 518l0 0 0 0 0 0zm-105 0l0 0 0 0 0 0z"/>
    <polygon class="fil6" points="2908,1470 2831,1470 2831,1655 2789,1655 2789,2179 2908,2179 2908,1696 2908,1655 "/>
    <path class="fil7" d="M322 3013l3258 0c-27,41 -55,80 -84,119l-3095 0c-27,-36 -54,-73 -79,-110l0 -9z"/>
    <path class="fil3" d="M1197 1744l1510 0c13,0 23,10 23,23l0 945c0,32 -26,58 -58,58l-1441 0c-32,0 -58,-26 -58,-58l0 -945c0,-13 10,-23 23,-23z"/>
    <rect class="fil8" x="1174" y="1744" width="1557" height="904"/>
    <rect class="fil9" x="1229" y="1795" width="1447" height="807"/>
    <rect class="fil8" x="1876" y="2688" width="161.765" height="37.3872" rx="12" ry="12"/>
    <rect class="fil10" x="1345" y="2710" width="182" height="128"/>
    <rect class="fil11" transform="matrix(0.669037 -0 -0.154901 -0.225482 1374.56 2880.94)" width="273" height="191"/>
    <rect class="fil12" x="1373" y="2734" width="79.488" height="10.7586"/>
    <rect class="fil12" x="1373" y="2796" width="79.488" height="10.7586"/>
    <rect class="fil12" x="1373" y="2765" width="116.422" height="10.7586"/>
    <polygon class="fil13" points="1771,2975 1956,2975 2141,2975 2111,2769 1956,2769 1800,2769 "/>
    <polygon class="fil14" points="2118,2769 1771,2975 1800,2769 "/>
    <path class="fil3" d="M1732 2975l447 0c5,0 8,4 8,8l0 30 -464 0 0 -30c0,-5 4,-8 8,-8z"/>
    <path class="fil15" d="M3175 2737l-245 0 0 205c0,39 32,71 71,71l103 0c39,0 71,-32 71,-71l0 -205z"/>
    <path class="fil16" d="M3053 2737l-123 0 0 205c0,39 32,71 71,71l52 0 0 -276z"/>
    <path class="fil15" d="M3171 2952c42,-1 75,-36 75,-78 0,-41 -33,-75 -73,-77l0 27c26,2 46,24 46,50 0,26 -20,48 -46,50l0 14c0,5 0,9 -1,14z"/>
    <rect class="fil17" x="312" y="1409" width="1252" height="117"/>
    <g>
     <rect class="fil15" x="394" y="1234" width="368" height="175"/>
     <rect class="fil16" x="394" y="1365" width="367.822" height="43.6354"/>
    </g>
    <g>
     <rect class="fil15" x="833" y="1325" width="367.822" height="84.1746"/>
     <rect class="fil10" x="850" y="1277" width="335.08" height="47.5373"/>
     <rect class="fil3" x="869" y="1197" width="295.736" height="79.6789"/>
    </g>
    <g>
     <path class="fil18" d="M1381 1034l40 0 0 15 -11 0 0 50c34,14 67,45 67,85l0 225 -97 0 -97 0 0 -225c0,-39 33,-70 67,-85l0 -50 -11 0 0 -15 40 0z"/>
     <path class="fil19" d="M1381 1409l-97 0 0 -225c0,-39 33,-70 67,-85l0 -50 -11 0 0 -15 40 0 0 375z"/>
    </g>
    <g>
     <polygon class="fil20" points="1337,1946 1907,1946 1907,1924 1337,1924 "/>
     <polygon class="fil21" points="1337,2000 1520,2000 1520,1978 1337,1978 "/>
     <polygon class="fil22" points="1337,2053 1632,2053 1632,2031 1337,2031 "/>
     <polygon class="fil21" points="1474,2107 1646,2107 1646,2085 1474,2085 "/>
     <polygon class="fil21" points="1474,2160 1646,2160 1646,2138 1474,2138 "/>
     <polygon class="fil21" points="1594,2214 1761,2214 1761,2192 1594,2192 "/>
     <polygon class="fil22" points="1581,2000 1893,2000 1893,1978 1581,1978 "/>
     <polygon class="fil10" points="1937,2000 2086,2000 2086,1978 1937,1978 "/>
     <polygon class="fil23" points="2143,2000 2343,2000 2343,1978 2143,1978 "/>
     <polygon class="fil21" points="1681,2053 1856,2053 1856,2031 1681,2031 "/>
     <polygon class="fil22" points="1699,2107 1799,2107 1799,2085 1699,2085 "/>
     <polygon class="fil23" points="1699,2160 1871,2160 1871,2138 1699,2138 "/>
     <polygon class="fil22" points="1847,2107 2038,2107 2038,2085 1847,2085 "/>
     <polygon class="fil10" points="2076,2107 2176,2107 2176,2085 2076,2085 "/>
     <polygon class="fil22" points="2219,2107 2343,2107 2343,2085 2219,2085 "/>
     <polygon class="fil22" points="1909,2160 2126,2160 2126,2138 1909,2138 "/>
     <polygon class="fil10" points="2158,2160 2223,2160 2223,2138 2158,2138 "/>
     <polygon class="fil22" points="1809,2214 1933,2214 1933,2192 1809,2192 "/>
     <polygon class="fil21" points="1474,2321 1646,2321 1646,2299 1474,2299 "/>
     <polygon class="fil21" points="1474,2374 1646,2374 1646,2352 1474,2352 "/>
     <polygon class="fil10" points="1699,2321 1799,2321 1799,2299 1699,2299 "/>
     <polygon class="fil22" points="1699,2374 1853,2374 1853,2352 1699,2352 "/>
     <polygon class="fil22" points="1847,2321 1994,2321 1994,2299 1847,2299 "/>
     <polygon class="fil10" points="2023,2321 2100,2321 2100,2299 2023,2299 "/>
     <polygon class="fil23" points="2133,2321 2229,2321 2229,2299 2133,2299 "/>
     <polygon class="fil22" points="2004,2374 2176,2374 2176,2352 2004,2352 "/>
     <polygon class="fil21" points="1474,2427 1646,2427 1646,2406 1474,2406 "/>
     <polygon class="fil21" points="1474,2481 1646,2481 1646,2459 1474,2459 "/>
     <polygon class="fil10" points="1699,2427 1799,2427 1799,2406 1699,2406 "/>
     <polygon class="fil22" points="1699,2481 2014,2481 2014,2459 1699,2459 "/>
     <polygon class="fil22" points="1847,2427 2038,2427 2038,2406 1847,2406 "/>
     <polygon class="fil10" points="2076,2427 2176,2427 2176,2406 2076,2406 "/>
     <polygon class="fil22" points="2219,2427 2343,2427 2343,2406 2219,2406 "/>
     <polygon class="fil23" points="2052,2481 2229,2481 2229,2459 2052,2459 "/>
     <polygon class="fil10" points="1888,2374 1961,2374 1961,2352 1888,2352 "/>
    </g>
    <rect class="fil3" x="2415" y="1309" width="1192.32" height="45.9894"/>
    <rect class="fil3" x="2898" y="1284" width="226.764" height="45.9894"/>
    <polygon class="fil6" points="3134,1607 3192,1607 3250,1562 3312,1562 3312,2179 3134,2179 3134,1790 3134,1757 "/>
    <path class="fil24" d="M3049 2807c0,36 -29,64 -64,64 0,2 0,5 0,7 36,0 64,29 64,64 2,0 5,0 7,0 0,-36 29,-64 64,-64 0,-2 0,-5 0,-7 -36,0 -64,-29 -64,-64 -2,0 -5,0 -7,0z"/>
    <path class="fil19" d="M3049 2807c0,36 -29,64 -64,64 0,2 0,5 0,7 36,0 64,29 64,64l4 0 0 -136 -4 0z"/>
    <path class="fil25" d="M3050 2574c1,-4 5,-6 8,-5 4,1 6,5 5,8 -1,5 -4,11 -6,16 -5,10 -10,21 -3,30 20,27 11,49 4,77 -1,4 -5,6 -9,5 -4,-1 -6,-5 -5,-9 6,-23 15,-44 -1,-65 -12,-16 -5,-30 2,-44 2,-5 4,-9 5,-13z"/>
    <path class="fil25" d="M3102 2616c1,-2 5,-3 8,-3 4,0 6,3 5,5 -1,3 -4,6 -6,9 -5,6 -10,12 -3,16 20,15 11,27 4,42 -1,2 -5,3 -9,3 -4,-1 -6,-3 -5,-5 6,-13 15,-24 -1,-36 -12,-9 -5,-17 2,-24 2,-3 4,-5 5,-7z"/>
    <path class="fil25" d="M2998 2616c1,-2 5,-3 8,-3 4,0 6,3 5,5 -1,3 -4,6 -6,9 -17,20 19,19 0,59 -1,2 -5,3 -9,3 -4,-1 -6,-3 -5,-5 19,-40 -22,-34 1,-60 2,-3 4,-5 5,-7z"/>
    <g>
     <rect class="fil26" x="404" y="2982" width="400.946" height="30.3885"/>
     <path class="fil3" d="M597 2874c70,0 130,45 152,108l-304 0c22,-63 82,-108 152,-108z"/>
     <polygon class="fil27" points="596,2069 368,2508 547,2881 528,2890 347,2513 345,2508 347,2503 577,2059 "/>
     <polygon class="fil27" points="651,2111 441,2524 616,2870 597,2879 420,2529 418,2524 420,2520 632,2102 "/>
     <polygon class="fil26" points="519,2031 611,1872 947,2017 812,2249 "/>
     <polygon class="fil3" points="881,1989 947,2017 812,2249 755,2207 "/>
     <rect class="fil26" transform="matrix(0.334518 -0.579403 0.579403 0.334518 523.764 1949.86)" width="58.2373" height="58.2373"/>
     <path class="fil10" d="M900 2098c16,12 21,35 11,53 -10,18 -33,25 -51,17l41 -70z"/>
     <circle class="fil26" cx="408" cy="2530" r="83"/>
     <circle class="fil3" cx="408" cy="2530" r="48"/>
    </g>
    <path class="fil3" d="M2465 3013l238 0 0 0c0,-40 -32,-72 -72,-72l-124 0c-23,0 -42,19 -42,42l0 30z"/>
    <path class="fil3" d="M2465 3013l236 0c-8,-31 -36,-54 -70,-54l-124 0c-23,0 -42,19 -42,42l0 11z"/>
   </g>
  </g>
 </g>
</svg>
